<?xml version="1.0" standalone="no"?>
<!DOCTYPE svg PUBLIC "-//W3C//DTD SVG 1.1//EN" "http://www.w3.org/Graphics/SVG/1.1/DTD/svg11.dtd" >
<svg xmlns="http://www.w3.org/2000/svg" xmlns:xlink="http://www.w3.org/1999/xlink" version="1.1">
<metadata></metadata>
<defs>
<font id="wagofuturademi_oblique" horiz-adv-x="1161" >
<font-face units-per-em="2048" ascent="1638" descent="-410" />
<missing-glyph horiz-adv-x="512" />
<glyph unicode="&#xfb01;" horiz-adv-x="1073" d="M61 635l25 192h102l37 306q26 213 93 293.5t217 80.5q72 0 153 -18l-26 -217q-33 8 -64 8q-66 0 -88.5 -32t-36.5 -142l-35 -279h176l-24 -192h-174l-80 -635h-250l78 635h-103zM645 0l103 827h249l-100 -827h-252zM760 1141q0 60 45.5 104.5t107.5 44.5q60 0 104 -45 t44 -106q0 -63 -43.5 -106.5t-106.5 -43.5t-107 44.5t-44 107.5z" />
<glyph unicode="&#xfb02;" horiz-adv-x="1073" d="M61 635l25 192h102l37 306q26 213 93 293.5t217 80.5q72 0 153 -18l-26 -217q-33 8 -64 8q-66 0 -88.5 -32t-36.5 -142l-35 -279h176l-24 -192h-174l-80 -635h-250l78 635h-103zM645 0l184 1493h252l-184 -1493h-252z" />
<glyph unicode="&#xfb03;" horiz-adv-x="1632" d="M61 635l25 192h102l37 306q26 213 93 293.5t217 80.5q72 0 153 -18l-26 -217q-33 8 -64 8q-66 0 -88.5 -32t-36.5 -142l-35 -279h111l-23 -192h-110l-80 -635h-250l78 635h-103zM621 635l24 192h103l36 306q26 213 93.5 293.5t218.5 80.5q70 0 151 -18l-26 -217 q-33 8 -62 8q-66 0 -90 -32t-37 -142l-33 -279h175l-25 -192h-174l-78 -635h-252l78 635h-102zM1204 0l103 827h252l-103 -827h-252zM1321 1141q0 61 45 105t107 44q60 0 104.5 -45.5t44.5 -105.5q0 -62 -44.5 -106t-107.5 -44t-106 44t-43 108z" />
<glyph unicode="&#xfb04;" horiz-adv-x="1634" d="M61 635l25 192h102l37 306q26 213 93 293.5t217 80.5q72 0 153 -18l-26 -217q-33 8 -64 8q-66 0 -88.5 -32t-36.5 -142l-35 -279h111l-23 -192h-110l-80 -635h-250l78 635h-103zM621 635l24 192h103l36 306q26 213 93.5 293.5t218.5 80.5q70 0 151 -18l-26 -217 q-33 8 -62 8q-66 0 -90 -32t-37 -142l-33 -279h175l-25 -192h-174l-78 -635h-252l78 635h-102zM1204 0l185 1493h251l-184 -1493h-252z" />
<glyph horiz-adv-x="0" />
<glyph horiz-adv-x="682" />
<glyph unicode=" "  horiz-adv-x="512" />
<glyph unicode="&#x09;" horiz-adv-x="512" />
<glyph unicode="&#xa0;" horiz-adv-x="512" />
<glyph unicode="!" horiz-adv-x="559" d="M82 131q0 64 47 110t113 46q63 0 108 -46t45 -112t-44.5 -111t-110.5 -45t-112 46t-46 112zM164 426l115 940h223l-115 -940h-223z" />
<glyph unicode="&#x22;" horiz-adv-x="778" d="M162 803l31 563h241l-106 -563h-166zM535 803l30 563h242l-107 -563h-165z" />
<glyph unicode="#" d="M72 401l22 191h211l39 209h-197l23 192h211l72 393l190 -26l-68 -367h181l73 393l191 -26l-68 -367h191l-23 -192h-202l-39 -209h190l-22 -193h-203l-78 -419l-191 26l72 393h-182l-78 -419l-192 26l73 395h-196zM502 592h180l39 209h-182z" />
<glyph unicode="$" d="M57 111l97 256q112 -67 205.5 -96t197.5 -29q121 0 185.5 40t64.5 115q0 57 -38.5 84.5t-164.5 59.5q-211 54 -276 86q-191 89 -191 315q0 122 57.5 219.5t161.5 149.5q55 29 109 42t141 19l25 195h162l-23 -195q159 -25 291 -104l-84 -246q-192 98 -352 98 q-109 0 -171.5 -40.5t-62.5 -110.5q0 -57 48.5 -91.5t166.5 -62.5q167 -38 234.5 -62.5t120.5 -66.5q116 -90 116 -272q0 -115 -56 -209.5t-155 -147.5q-58 -30 -114.5 -43.5t-151.5 -19.5l-27 -225h-163l28 225q-115 15 -198.5 40.5t-182.5 76.5z" />
<glyph unicode="%" horiz-adv-x="1613" d="M117 969q0 180 85 294.5t218 114.5q112 0 174.5 -78.5t62.5 -216.5q0 -189 -82 -302t-217 -113q-116 0 -178.5 78t-62.5 223zM260 969q0 -178 102 -178q67 0 109.5 80t42.5 208q0 83 -27.5 129.5t-74.5 46.5q-65 0 -108.5 -82.5t-43.5 -203.5zM526 23l504 1357l109 -37 l-502 -1357zM1008 289q0 181 84 294t219 113q112 0 174.5 -78t62.5 -215q0 -187 -82 -301t-217 -114q-117 0 -179 77.5t-62 223.5zM1151 287q0 -91 24.5 -133.5t77.5 -42.5q67 0 109.5 80t42.5 208q0 81 -27.5 127.5t-74.5 46.5q-66 0 -109 -81t-43 -205z" />
<glyph unicode="&#x26;" horiz-adv-x="1255" d="M86 330q0 132 73.5 234.5t241.5 205.5q-65 94 -86.5 149t-21.5 125q0 148 102.5 245t257.5 97q146 0 237 -88.5t91 -230.5q0 -72 -28.5 -137.5t-80.5 -110.5q-45 -40 -143 -102l150 -223l145 129l143 -199l-155 -127l198 -297h-292l-101 143q-124 -99 -193.5 -131 t-162.5 -32q-163 0 -269 98.5t-106 251.5zM328 367q0 -57 40.5 -96.5t100.5 -39.5q51 0 101 23t122 80l-174 258q-121 -88 -155.5 -129t-34.5 -96zM520 1069q0 -81 92 -195q75 56 109.5 103t34.5 94q0 51 -32.5 81t-86.5 30q-56 0 -86.5 -29.5t-30.5 -83.5z" />
<glyph unicode="'" horiz-adv-x="405" d="M162 803l31 563h241l-106 -563h-166z" />
<glyph unicode="(" horiz-adv-x="667" d="M125 393q0 361 158 697q51 108 112 202t162 221l158 -108q-187 -287 -267.5 -527.5t-80.5 -512.5q0 -164 31 -304t104 -303l-166 -106q-109 185 -160 363t-51 378z" />
<glyph unicode=")" horiz-adv-x="667" d="M-18 -240q188 287 268 527t80 514q0 165 -31 303.5t-104 300.5l165 108q110 -184 160.5 -362t50.5 -381q0 -363 -157 -694q-51 -107 -112.5 -201.5t-162.5 -222.5z" />
<glyph unicode="*" d="M256 1176l86 186l244 -129l18 274l205 -24l-47 -271l266 66l39 -201l-272 -39l145 -233l-180 -98l-121 245l-176 -211l-150 140l197 192z" />
<glyph unicode="+" d="M111 602v191h401v389h195v-389h401v-191h-401v-401h-195v401h-401z" />
<glyph unicode="," horiz-adv-x="546" d="M-14 -336l139 582h264l-264 -582h-139z" />
<glyph unicode="-" horiz-adv-x="440" d="M-18 319l26 209h441l-27 -209h-440z" />
<glyph unicode="." horiz-adv-x="546" d="M74 131q0 65 46.5 110.5t112.5 45.5q63 0 108.5 -46t45.5 -112t-45 -111t-111 -45t-111.5 46t-45.5 112z" />
<glyph unicode="/" horiz-adv-x="776" d="M25 -291l571 1804l192 -59l-569 -1802z" />
<glyph unicode="0" d="M92 565q0 240 73.5 428.5t206.5 294t302 105.5q207 0 326.5 -155.5t119.5 -424.5q0 -336 -137 -577q-69 -125 -183.5 -194t-252.5 -69q-109 0 -199.5 44.5t-150.5 127.5q-55 76 -80 176.5t-25 243.5zM348 563q0 -153 33 -241q23 -57 69 -89t105 -32q76 0 138 50.5 t98 143.5q73 196 73 410q0 167 -55 263.5t-150 96.5q-71 0 -130 -47.5t-99 -136.5q-82 -188 -82 -418z" />
<glyph unicode="1" d="M379 1139l29 227h432l-168 -1366h-256l139 1139h-176z" />
<glyph unicode="2" d="M27 0l465 487q199 211 259 305.5t60 198.5q0 83 -45.5 128.5t-130.5 45.5q-100 0 -153 -59t-68 -186h-250q9 88 23.5 142t43.5 109q55 104 163 163t243 59q190 0 310 -115.5t120 -298.5q0 -154 -108.5 -308.5t-419.5 -443.5h481l-29 -227h-964z" />
<glyph unicode="3" d="M125 393h252q5 -82 29 -123q49 -77 155 -77q94 0 150.5 59.5t56.5 159.5q0 98 -59.5 142t-192.5 44l27 207h47q219 0 219 196q0 80 -44.5 125t-123.5 45q-83 0 -128 -45.5t-64 -146.5h-252q29 203 143.5 308.5t306.5 105.5q186 0 295 -96.5t109 -260.5 q0 -120 -51.5 -191.5t-176.5 -127.5q107 -50 153 -120t46 -185q0 -103 -43 -196.5t-117 -152.5q-110 -90 -315 -90q-130 0 -225.5 41.5t-141.5 118.5q-29 46 -41 106t-14 154z" />
<glyph unicode="4" d="M57 291l29 229l664 846h286l-108 -879h155l-22 -196h-158l-35 -291h-254l37 291h-594zM297 487h377l74 592z" />
<glyph unicode="5" d="M53 106l70 226q127 -74 210 -102.5t173 -28.5q122 0 197 70t75 184q0 115 -82 181t-223 66q-56 0 -98.5 -7.5t-120.5 -30.5l154 702h645l-29 -227h-444l-58 -262q77 6 107 6q189 0 297 -107t108 -293q0 -229 -149 -372q-144 -138 -389 -138q-128 0 -227 30t-216 103z" />
<glyph unicode="6" d="M82 397q0 92 34 180t109 189q9 11 123 147l385 453h311l-430 -508h58q189 0 294 -104.5t105 -292.5q0 -214 -144 -351t-370 -137q-207 0 -341 119.5t-134 304.5zM338 424q0 -104 58.5 -163.5t162.5 -59.5q117 0 186.5 68.5t69.5 183.5q0 104 -61 165.5t-164 61.5 q-110 0 -181 -72t-71 -184z" />
<glyph unicode="7" d="M135 0l670 1139h-563l28 227h944l-786 -1366h-293z" />
<glyph unicode="8" d="M111 367q0 99 40.5 181t112.5 126q33 21 68 33t102 26q-48 25 -74 43.5t-47 44.5q-67 83 -67 199q0 163 123 268t315 105q179 0 288 -97.5t109 -257.5q0 -152 -92 -241q-26 -26 -56 -43t-89 -39q49 -26 74.5 -45.5t48.5 -48.5q77 -90 77 -220q0 -82 -36.5 -164 t-100.5 -143q-124 -121 -329 -121q-212 0 -339.5 107.5t-127.5 286.5zM367 399q0 -94 54 -149t148 -55q114 0 174 84q48 67 48 141q0 88 -56 141t-147 53q-97 0 -159 -60t-62 -155zM481 987q0 -83 48 -132.5t126 -49.5q88 0 139.5 54.5t51.5 146.5q0 82 -47 130t-125 48 q-86 0 -139.5 -54.5t-53.5 -142.5z" />
<glyph unicode="9" d="M141 905q0 214 145 351t371 137q206 0 341 -120t135 -304q0 -92 -34.5 -180t-111.5 -189q-12 -18 -123 -147l-383 -453h-313l432 508h-59q-153 0 -256 72q-66 48 -105 134.5t-39 190.5zM397 913q0 -103 62.5 -165t165.5 -62q109 0 180.5 72t71.5 184q0 103 -59.5 163 t-162.5 60q-118 0 -188 -69t-70 -183z" />
<glyph unicode=":" horiz-adv-x="546" d="M74 131q0 65 46.5 110.5t112.5 45.5q63 0 108.5 -46t45.5 -112t-45 -111t-111 -45t-111.5 46t-45.5 112zM143 698q0 66 46 111t114 45q64 0 109 -45.5t45 -110.5q0 -66 -45.5 -111.5t-110.5 -45.5q-66 0 -112 45.5t-46 111.5z" />
<glyph unicode=";" horiz-adv-x="546" d="M-14 -336l139 582h264l-264 -582h-139zM168 602q0 64 47 110t113 46q64 0 108.5 -45.5t44.5 -110.5q0 -67 -44.5 -112.5t-110.5 -45.5t-112 46t-46 112z" />
<glyph unicode="&#x3c;" horiz-adv-x="1024" d="M92 573v224l887 450v-262l-606 -301l606 -303v-262z" />
<glyph unicode="=" d="M111 440v183h997v-183h-997zM111 770v182h997v-182h-997z" />
<glyph unicode="&#x3e;" horiz-adv-x="1024" d="M92 119v264l606 301l-606 301v262l887 -452v-224z" />
<glyph unicode="?" horiz-adv-x="962" d="M131 975q12 106 33.5 168.5t62.5 111.5q117 138 324 138q186 0 296.5 -108t110.5 -290q0 -106 -41.5 -195.5t-117.5 -146.5q-42 -32 -85 -46t-108 -19l-22 -174h-250l47 383q53 -6 78 -6q239 0 239 196q0 77 -45 121.5t-121 44.5q-157 0 -178 -178h-223zM268 131 q0 65 46.5 110.5t113.5 45.5q63 0 108.5 -46.5t45.5 -111.5t-46 -110.5t-112 -45.5t-111 46t-45 112z" />
<glyph unicode="@" horiz-adv-x="1564" d="M104 682q0 150 57 282.5t155.5 227.5t236 150t291.5 55q191 0 346.5 -80.5t243.5 -222.5t88 -316q0 -133 -49 -247t-132.5 -181t-181.5 -67q-54 0 -94.5 28.5t-60.5 81.5q-52 -60 -109 -87t-129 -27q-146 0 -241 107t-95 271q0 172 106.5 286t266.5 114q69 0 129.5 -24 t91.5 -62l8 69h166l-55 -465q-6 -49 -6 -94q0 -53 41 -53q75 0 135.5 105.5t60.5 236.5q0 214 -148 349.5t-380 135.5q-160 0 -291 -74.5t-206 -205.5t-75 -291q0 -155 73.5 -286t201.5 -205q130 -74 313 -74q116 0 207.5 22.5t210.5 79.5l33 17l59 -144 q-137 -68 -252.5 -96.5t-255.5 -28.5q-233 0 -407 97q-163 94 -258 259t-95 357zM608 649q0 -95 46 -154t120 -59q92 0 159.5 78.5t67.5 183.5q0 84 -53 139.5t-133 55.5q-91 0 -149 -68.5t-58 -175.5z" />
<glyph unicode="A" horiz-adv-x="1269" d="M-31 0l688 1366h265l290 -1366h-282l-45 223h-504l-111 -223h-301zM494 475h342l-68 340q-18 82 -18 150q0 23 2 43l2 26l-19 2q-12 -58 -29 -103.5t-61 -141.5z" />
<glyph unicode="B" horiz-adv-x="1171" d="M100 0l168 1366h303q250 0 353 -70q129 -84 129 -266q0 -141 -86 -233q-29 -30 -62 -47t-96 -35q74 -17 112 -32t70 -40q47 -37 73 -98.5t26 -136.5q0 -119 -55.5 -213.5t-153.5 -141.5q-115 -53 -381 -53h-400zM401 231h117q75 0 112.5 6t69.5 23q43 22 70 67.5t27 98.5 q0 42 -18.5 77t-49.5 52q-49 27 -186 27h-99zM471 795h68q101 0 147 20t72 65.5t26 104.5q0 85 -43 117.5t-157 32.5h-72z" />
<glyph unicode="C" horiz-adv-x="1214" d="M111 635q0 163 54.5 304t150 240.5t230.5 156.5t292 57q115 0 206 -26t181 -83l-37 -301q-94 74 -173.5 105.5t-172.5 31.5q-187 0 -313 -138.5t-126 -344.5q0 -173 102 -282t265 -109q88 0 167 31t177 104l-39 -318q-139 -90 -330 -90q-130 0 -251 50t-207 139 q-176 182 -176 473z" />
<glyph unicode="D" horiz-adv-x="1335" d="M100 0l168 1366h348q171 0 270 -21t177 -75q105 -72 161 -206.5t56 -315.5q0 -226 -90 -406t-242 -258q-169 -84 -469 -84h-379zM403 246h62q205 0 311 57q98 56 154.5 178.5t56.5 282.5q0 265 -178 332q-77 24 -223 24h-74z" />
<glyph unicode="E" horiz-adv-x="960" d="M100 0l168 1366h707l-31 -252h-434l-37 -303h418l-31 -252h-418l-36 -307h434l-33 -252h-707z" />
<glyph unicode="F" horiz-adv-x="872" d="M100 0l168 1366h645l-30 -252h-373l-37 -303h373l-31 -252h-373l-67 -559h-275z" />
<glyph unicode="G" horiz-adv-x="1474" d="M111 631q0 216 92 390.5t255 273t365 98.5q374 0 549 -324l-235 -133q-63 98 -137 141t-177 43q-178 0 -299 -139.5t-121 -343.5q0 -175 102 -284t265 -109q123 0 199.5 54.5t101.5 160.5h-348l33 252h657q-8 -160 -37.5 -270.5t-87.5 -196.5q-88 -128 -227.5 -199.5 t-304.5 -71.5q-188 0 -335 83t-228.5 233t-81.5 342z" />
<glyph unicode="H" horiz-adv-x="1359" d="M100 0l168 1366h273l-66 -547h498l67 547h273l-168 -1366h-273l70 567h-498l-71 -567h-273z" />
<glyph unicode="I" horiz-adv-x="587" d="M100 0l168 1366h275l-168 -1366h-275z" />
<glyph unicode="J" horiz-adv-x="860" d="M-12 254l211 111q26 -75 46.5 -97t63.5 -22q55 0 77 33.5t36 136.5l115 950h278l-125 -1010q-25 -204 -106.5 -293.5t-241.5 -89.5q-144 0 -227 65.5t-127 215.5z" />
<glyph unicode="K" horiz-adv-x="1214" d="M100 0l168 1366h273l-76 -616l455 616h315l-500 -678l424 -688h-340l-364 659l-82 -659h-273z" />
<glyph unicode="L" horiz-adv-x="868" d="M100 0l168 1366h273l-135 -1114h409l-31 -252h-684z" />
<glyph unicode="M" horiz-adv-x="1710" d="M39 0l420 1366h256l129 -715q14 -82 14 -135q0 -45 -4 -80h16q11 85 62 187l352 743h260l25 -1366h-275l-12 627v41q0 82 21 190l-17 4q-19 -92 -55 -170l-330 -692h-186l-125 668q-17 92 -17 157q0 25 2 58h-16q-9 -81 -15.5 -115t-27.5 -104l-205 -664h-272z" />
<glyph unicode="N" horiz-adv-x="1533" d="M100 0l168 1366h275l467 -776q65 -106 96 -217l16 4q-8 63 -8 104q0 69 10 140l90 745h275l-168 -1366h-274l-455 748q-93 161 -111 239l-14 -4q10 -76 10 -109q0 -7 -1 -21.5t-2.5 -35t-2.5 -31.5l-98 -786h-273z" />
<glyph unicode="O" horiz-adv-x="1556" d="M111 643q0 159 55.5 298.5t152 238.5t232 156t289.5 57q296 0 478.5 -181.5t182.5 -474.5q0 -153 -50.5 -290t-147.5 -244q-207 -230 -529 -230q-299 0 -487 191q-91 94 -133.5 209.5t-42.5 269.5zM403 641q0 -178 104.5 -286.5t274.5 -108.5q199 0 312 149 q55 70 84.5 157.5t29.5 176.5q0 79 -26 154t-72 129q-92 108 -264 108q-190 0 -316.5 -136.5t-126.5 -342.5z" />
<glyph unicode="P" horiz-adv-x="1095" d="M100 0l168 1366h318q128 0 208 -13.5t138 -45.5q79 -41 124.5 -135t45.5 -216q0 -132 -52 -230t-147 -148q-69 -37 -145 -51.5t-201 -14.5h-121l-63 -512h-273zM465 748h82q75 0 112.5 7.5t67.5 28.5q38 26 60 73t22 101q0 89 -53 129q-22 15 -56.5 21t-105.5 6h-84z" />
<glyph unicode="Q" horiz-adv-x="1556" d="M111 633q0 163 55 304t151 241t231.5 157.5t291.5 57.5q296 0 478.5 -181.5t182.5 -474.5q0 -324 -223 -561l149 -192l-217 -78l-108 141q-151 -74 -328 -74q-297 0 -480 182.5t-183 477.5zM403 635q0 -177 106.5 -283t281.5 -106q78 0 137 24l-148 191l215 78l105 -136 q108 147 108 326q0 164 -98 283q-92 108 -266 108q-191 0 -316 -137.5t-125 -347.5z" />
<glyph unicode="R" horiz-adv-x="1175" d="M100 0l168 1366h334q128 0 203.5 -14t132.5 -49q69 -43 107 -123t38 -183q0 -101 -35.5 -186.5t-101.5 -144.5q-42 -37 -83 -55.5t-109 -30.5l342 -580h-318l-336 565l-69 -565h-273zM465 748h86q120 0 178.5 53t58.5 162q0 85 -40.5 118t-141.5 33h-96z" />
<glyph unicode="S" horiz-adv-x="976" d="M23 102l141 230q87 -49 147.5 -67.5t128.5 -18.5q77 0 123.5 39.5t46.5 105.5q0 48 -29.5 83t-131.5 106q-131 92 -179 137q-108 99 -108 254q0 183 124.5 302.5t313.5 119.5q205 0 363 -119l-123 -244q-131 90 -244 90q-65 0 -103 -33t-38 -90q0 -45 29.5 -76.5 t136.5 -99.5q163 -104 223.5 -188.5t60.5 -206.5q0 -86 -34 -168.5t-97 -146.5q-135 -138 -346 -138q-99 0 -180.5 26t-224.5 103z" />
<glyph unicode="T" horiz-adv-x="841" d="M92 1114l31 252h813l-31 -252h-260l-137 -1114h-272l137 1114h-281z" />
<glyph unicode="U" horiz-adv-x="1359" d="M156 375q0 78 16 217l96 774h273l-92 -754q-15 -117 -15 -161q0 -205 228 -205q140 0 200 78t86 294l92 748h273l-99 -803q-20 -168 -48.5 -261.5t-78.5 -156.5q-137 -172 -442 -172q-238 0 -363.5 103.5t-125.5 298.5z" />
<glyph unicode="V" horiz-adv-x="1218" d="M111 1366h278l164 -723q22 -104 22 -172q0 -30 -2 -53l13 -4q37 129 106 266l344 686h293l-692 -1366h-219z" />
<glyph unicode="W" horiz-adv-x="1798" d="M111 1366h274l96 -696q13 -86 13 -131q0 -10 -7 -99l17 -4q12 66 23 102.5t40 100.5l314 727h247l99 -702q10 -76 10 -140q0 -51 -6 -92l18 -2q16 92 72 223l303 713h285l-588 -1366h-252l-104 729q-13 93 -13 150q0 17 6 82l-16 4q-16 -93 -57 -193l-334 -772h-250z" />
<glyph unicode="X" horiz-adv-x="1212" d="M-8 0l477 707l-360 659h313l127 -236q51 -93 66 -137t20 -108h14q26 76 48 121t75 122l156 238h315l-455 -672l381 -694h-311l-156 283q-39 70 -55 117t-24 112h-15q-12 -56 -32.5 -98t-75.5 -125l-197 -289h-311z" />
<glyph unicode="Y" horiz-adv-x="1146" d="M96 1366h312l204 -469l314 469h331l-524 -766l-74 -600h-272l74 600z" />
<glyph unicode="Z" horiz-adv-x="1124" d="M39 0l627 1114h-519l31 252h952l-630 -1114h557l-33 -252h-985z" />
<glyph unicode="[" horiz-adv-x="690" d="M53 -328l223 1821h486l-21 -170h-245l-183 -1481h246l-20 -170h-486z" />
<glyph unicode="\" horiz-adv-x="776" d="M229 1495l209 18l127 -1845l-209 -16z" />
<glyph unicode="]" horiz-adv-x="690" d="M-43 -328l20 170h246l183 1481h-246l20 170h486l-224 -1821h-485z" />
<glyph unicode="^" horiz-adv-x="1024" d="M35 684l327 690h351l327 -690h-278l-223 477l-226 -477h-278z" />
<glyph unicode="_" horiz-adv-x="1024" d="M25 -94h1024v-240h-1024v240z" />
<glyph unicode="`" horiz-adv-x="1024" d="M342 1210l219 107l156 -293l-146 -68z" />
<glyph unicode="a" horiz-adv-x="1095" d="M66 358q0 215 117.5 355.5t297.5 140.5q89 0 148.5 -31t128.5 -114l14 118h248l-100 -827h-256l22 117q-74 -80 -137 -112t-148 -32q-152 0 -243.5 105.5t-91.5 279.5zM338 395q0 -92 47 -145t127 -53q94 0 154.5 73.5t60.5 186.5q0 89 -46.5 142.5t-123.5 53.5 q-92 0 -155.5 -75t-63.5 -183z" />
<glyph unicode="b" horiz-adv-x="1081" d="M61 0l185 1493h252l-99 -795q76 87 138.5 121.5t144.5 34.5q149 0 238.5 -107.5t89.5 -287.5q0 -214 -115.5 -350t-296.5 -136q-88 0 -148 32t-122 112l-15 -117h-252zM352 381q0 -92 45.5 -146.5t122.5 -54.5q92 0 154.5 75t62.5 185q0 92 -46 144.5t-126 52.5 q-92 0 -152.5 -73.5t-60.5 -182.5z" />
<glyph unicode="c" horiz-adv-x="770" d="M61 379q0 214 123 344.5t324 130.5q69 0 122.5 -11t123.5 -40l-43 -230q-90 41 -176 41q-95 0 -149 -59.5t-54 -163.5q0 -85 45 -129.5t131 -44.5q49 0 84.5 9t93.5 36l-47 -258q-108 -31 -193 -31q-180 0 -282.5 108.5t-102.5 297.5z" />
<glyph unicode="d" horiz-adv-x="1093" d="M59 362q0 212 117.5 352t296.5 140q92 0 156.5 -34t122.5 -113l98 786h250l-185 -1493h-249l16 125q-66 -84 -129.5 -118t-153.5 -34q-157 0 -248.5 105t-91.5 284zM332 393q0 -91 46.5 -145.5t123.5 -54.5q91 0 154 75.5t63 184.5q0 91 -46 143.5t-126 52.5 q-92 0 -153.5 -73.5t-61.5 -182.5z" />
<glyph unicode="e" horiz-adv-x="989" d="M63 391q0 203 129 333t330 130q186 0 292 -112t106 -308q0 -5 -5 -76h-606q10 -68 37 -106q23 -28 64 -45t86 -17q43 0 76.5 13t74.5 45l217 -86q-52 -92 -148 -140.5t-227 -48.5q-195 0 -310.5 113t-115.5 305zM332 528h360q-8 72 -44.5 106t-106.5 34 q-73 0 -120.5 -31.5t-88.5 -108.5z" />
<glyph unicode="f" horiz-adv-x="587" d="M61 635l25 192h102l37 306q26 213 93 293.5t217 80.5q72 0 153 -18l-26 -217q-33 8 -64 8q-66 0 -88.5 -32t-36.5 -142l-35 -279h176l-24 -192h-174l-80 -635h-250l78 635h-103z" />
<glyph unicode="g" horiz-adv-x="1087" d="M49 -125h252q10 -55 46.5 -79.5t107.5 -24.5q67 0 110.5 32t69.5 101q18 55 35 188q-64 -58 -117.5 -79t-136.5 -21q-169 0 -264 96t-95 266q0 138 55 253t150 181t209 66q95 0 154 -39t116 -139l19 151h252l-97 -784q-17 -140 -43 -207.5t-84 -124.5q-63 -62 -158 -95.5 t-208 -33.5q-171 0 -266 74.5t-107 218.5zM328 371q0 -89 48 -145t124 -56q91 0 153 76t62 186q0 91 -45.5 143t-126.5 52q-103 0 -158 -80q-26 -34 -41.5 -84t-15.5 -92z" />
<glyph unicode="h" horiz-adv-x="1021" d="M61 0l185 1493h250l-95 -772q87 79 143.5 106t131.5 27q116 0 180 -57t64 -160q0 -41 -9 -94l-65 -543h-252l51 416q12 104 12 112q0 48 -29.5 74.5t-84.5 26.5q-85 0 -125.5 -57.5t-59.5 -202.5l-45 -369h-252z" />
<glyph unicode="i" horiz-adv-x="489" d="M61 0l103 827h250l-101 -827h-252zM176 1141q0 60 46 104.5t108 44.5q60 0 103.5 -44.5t43.5 -106.5q0 -63 -43 -106.5t-106 -43.5t-107.5 44.5t-44.5 107.5z" />
<glyph unicode="j" horiz-adv-x="489" d="M14 -383l148 1210h252l-148 -1210h-252zM176 1141q0 60 45.5 104.5t108.5 44.5q58 0 102.5 -45.5t44.5 -105.5q0 -63 -44 -106.5t-107 -43.5t-106.5 44t-43.5 108z" />
<glyph unicode="k" horiz-adv-x="944" d="M61 0l185 1493h250l-121 -995l270 329h301l-334 -395l287 -432h-303l-231 424l-52 -424h-252z" />
<glyph unicode="l" horiz-adv-x="489" d="M61 0l185 1493h252l-185 -1493h-252z" />
<glyph unicode="m" horiz-adv-x="1558" d="M61 0l103 827h252l-17 -122q70 83 132.5 116t148.5 33q88 0 140 -32t87 -107q71 81 130.5 110t150.5 29q127 0 196.5 -60.5t69.5 -170.5q0 -45 -6 -95l-66 -528h-252l58 457q4 50 4 69q0 103 -117 103q-83 0 -124 -51.5t-56 -174.5l-49 -403h-252l57 453q4 50 4 69 q0 107 -114 107q-82 0 -123 -54t-56 -180l-49 -395h-252z" />
<glyph unicode="n" horiz-adv-x="1024" d="M61 0l103 827h250l-15 -125q74 87 134 120.5t139 33.5q126 0 196 -70q29 -26 40.5 -59t11.5 -90q0 -21 -5 -88l-69 -549h-250l55 455q6 37 6 71q0 105 -112 105q-45 0 -86.5 -24.5t-61.5 -63.5q-21 -47 -30 -133l-52 -410h-254z" />
<glyph unicode="o" horiz-adv-x="1050" d="M63 395q0 195 135.5 327t336.5 132q196 0 318 -118.5t122 -307.5q0 -195 -131 -325t-328 -130q-203 0 -328 116.5t-125 305.5zM334 397q0 -92 47 -146t127 -54q88 0 142.5 65.5t54.5 171.5q0 92 -46.5 144.5t-126.5 52.5q-88 0 -143 -65.5t-55 -168.5z" />
<glyph unicode="p" horiz-adv-x="1093" d="M14 -383l150 1210h250l-15 -125q72 83 137 117.5t148 34.5q154 0 245 -105.5t91 -283.5q0 -213 -118 -353.5t-298 -140.5q-83 0 -141 31.5t-135 118.5l-62 -504h-252zM362 381q0 -91 47.5 -145t125.5 -54q91 0 152 74.5t61 183.5q0 94 -45 147.5t-123 53.5 q-92 0 -155 -75t-63 -185z" />
<glyph unicode="q" horiz-adv-x="1091" d="M61 367q0 211 117.5 349t296.5 138q97 0 161 -34t116 -113l14 120h252l-148 -1206h-252l64 516q-69 -91 -132.5 -127.5t-154.5 -36.5q-153 0 -243.5 107t-90.5 287zM334 401q0 -90 48 -145t126 -55q92 0 153.5 74t61.5 186q0 92 -46 145t-126 53q-89 0 -153 -76t-64 -182 z" />
<glyph unicode="r" horiz-adv-x="679" d="M61 0l103 827h250l-19 -159q76 110 131 149t133 39l43 -2l-30 -258q-63 14 -94 14q-57 0 -103.5 -21.5t-71.5 -58.5q-32 -52 -45 -157l-45 -373h-252z" />
<glyph unicode="s" horiz-adv-x="765" d="M18 55l62 199q102 -54 149.5 -70t108.5 -16q51 0 74.5 16.5t23.5 53.5q0 32 -21 45.5t-126 50.5q-117 40 -161 89t-44 138q0 135 89 214t243 79q76 0 142 -17.5t151 -60.5l-88 -176q-107 68 -205 68q-44 0 -71.5 -18.5t-27.5 -49.5q0 -39 48 -59q7 -2 120 -37 q110 -32 154.5 -83.5t44.5 -146.5q0 -143 -88 -222t-246 -79q-172 0 -332 82z" />
<glyph unicode="t" horiz-adv-x="526" d="M47 635l25 192h104l35 281h250l-33 -281h111l-23 -192h-113l-77 -635h-252l78 635h-105z" />
<glyph unicode="u" horiz-adv-x="1034" d="M104 297q0 24 9 121l51 409h250l-54 -440q-6 -41 -6 -68q0 -61 37 -93.5t105 -32.5q77 0 111.5 45t49.5 163l52 426h252l-54 -432q-13 -118 -34 -183.5t-60 -113.5q-52 -66 -130 -95.5t-198 -29.5q-184 0 -282.5 83.5t-98.5 240.5z" />
<glyph unicode="v" horiz-adv-x="923" d="M27 827h254l100 -340q37 -120 37 -202v-17l12 -2q17 67 35 109.5t57 109.5l193 342h260l-471 -827h-223z" />
<glyph unicode="w" horiz-adv-x="1505" d="M27 827h247l84 -323q29 -107 29 -178q0 -29 -4 -52l16 -4q19 69 35.5 108.5t54.5 102.5l197 346h201l84 -321q24 -91 24 -184v-52h17q11 50 28.5 92t67.5 134l190 331h258l-475 -827h-200l-86 332q-33 132 -33 203q0 25 2 43l-16 4q-25 -106 -93 -220l-209 -362h-200z " />
<glyph unicode="x" horiz-adv-x="888" d="M-55 0l344 440l-242 387h289l108 -223l152 223h303l-321 -403l270 -424h-291l-143 252l-181 -252h-288z" />
<glyph unicode="y" horiz-adv-x="901" d="M27 827h268l149 -518l242 518h266l-594 -1204h-264l197 406z" />
<glyph unicode="z" horiz-adv-x="790" d="M2 0l383 627h-319l24 200h682l-381 -626h330l-25 -201h-694z" />
<glyph unicode="{" horiz-adv-x="647" d="M59 487l25 203q63 13 94.5 57.5t42.5 129.5l47 378q17 137 81.5 197.5t191.5 60.5q41 0 143 -4l-27 -209h-24q-80 0 -108 -29.5t-40 -127.5l-41 -344q-15 -95 -45.5 -138.5t-105.5 -78.5q98 -71 98 -195q0 -19 -2 -27l-43 -354q-4 -46 -4 -63q0 -46 26.5 -61.5 t112.5 -16.5l-26 -211q-98 -2 -131 -2q-119 0 -169.5 51t-50.5 172q0 40 7 98l49 400q-3 96 -101 114z" />
<glyph unicode="|" horiz-adv-x="1024" d="M403 -342v1708h267v-1708h-267z" />
<glyph unicode="}" horiz-adv-x="647" d="M-6 -346l26 211q98 0 129 28.5t41 129.5l43 344q13 93 43.5 136.5t106.5 80.5q-98 73 -98 194q0 15 2 25l43 356q4 32 4 62q0 36 -8 47q-22 32 -105 32h-24l24 209l51 2q35 2 80 2q120 0 169.5 -50.5t49.5 -172.5q0 -54 -6 -98l-49 -401v-9q0 -38 27.5 -67t74.5 -39 l-26 -201q-62 -15 -94.5 -59t-42.5 -129l-45 -379q-17 -136 -81.5 -196t-193.5 -60q-49 0 -141 2z" />
<glyph unicode="~" horiz-adv-x="1366" d="M209 1243l16 35q38 88 64.5 128t68.5 73q67 49 162 49q68 0 211 -53q85 -31 118 -40.5t60 -9.5q48 0 79.5 23t66.5 84l151 -88q-45 -96 -78.5 -143t-78.5 -78q-36 -23 -83 -38.5t-85 -15.5q-50 0 -211 58q-122 45 -166 45q-54 0 -94 -37q-21 -21 -56 -88z" />
<glyph unicode="&#xa1;" horiz-adv-x="559" d="M72 -328l114 940h224l-115 -940h-223zM178 909q0 66 46 111t114 45q63 0 108.5 -46.5t45.5 -111.5t-46 -110t-112 -45t-111 45t-45 112z" />
<glyph unicode="&#xa2;" d="M256 662q0 118 42.5 218.5t119.5 166.5q47 41 97 61.5t132 30.5l23 194h157l-22 -194q59 -9 121 -33l-29 -240q-74 24 -104 30.5t-72 6.5q-97 0 -155 -60t-58 -161q0 -89 48.5 -136.5t139.5 -47.5q81 0 160 32l-31 -254q-46 -15 -129 -22l-28 -221h-158l29 231 q-283 83 -283 398z" />
<glyph unicode="&#xa3;" d="M35 2l28 231q114 35 191 93q55 41 87 95t32 105q0 7 -4 47h-273l23 175h180q-46 90 -63 142t-17 107q0 171 139 283.5t351 112.5q343 0 471 -293l-224 -121q-44 100 -96 138t-143 38q-95 0 -149 -48t-54 -134q0 -57 43 -146q23 -52 29 -79h342l-23 -175h-282q4 -46 4 -55 q0 -135 -174 -260q42 -3 168 -25q69 -14 135 -14q70 0 115.5 11.5t105.5 45.5l63 -241q-130 -62 -258 -62q-85 0 -252 35q-184 39 -258 39q-88 0 -237 -45z" />
<glyph unicode="&#xa4;" horiz-adv-x="1366" d="M39 1268l145 145l213 -213q142 90 287 90t281 -88l211 209l143 -143l-209 -209q51 -79 71.5 -144t20.5 -143q0 -77 -20.5 -141.5t-67.5 -136.5l211 -211l-143 -146l-211 211q-137 -92 -291 -92q-77 0 -142.5 20.5t-142.5 69.5l-211 -209l-143 144l211 211 q-90 133 -90 282q0 147 90 281zM403 772q0 -115 81.5 -196.5t197.5 -81.5q117 0 198 81t81 197q0 115 -81 198t-194 83q-117 0 -200 -82t-83 -199z" />
<glyph unicode="&#xa5;" d="M100 1366h303l205 -469l314 469h323l-297 -436h146l-23 -187h-252l-86 -129h322l-23 -186h-332l-53 -428h-256l53 428h-325l22 186h316l-60 129h-239l22 187h127z" />
<glyph unicode="&#xa6;" horiz-adv-x="1024" d="M403 313h267v-655h-267v655zM403 655v711h267v-711h-267z" />
<glyph unicode="&#xa7;" d="M106 68h246q6 -74 11 -98t18 -44q42 -57 141 -57q82 0 125 39t43 112q0 67 -43 97q-31 18 -131 53q-200 72 -271 151t-71 228q0 130 54 214.5t188 162.5q-57 66 -81 122.5t-24 122.5q0 151 113.5 248t288.5 97q92 0 167.5 -29t116.5 -80q70 -88 70 -274v-46h-211l-2 27 q-1 66 -7 92.5t-24 50.5q-37 50 -112 50q-69 0 -115.5 -47t-46.5 -117q0 -68 61 -107q22 -14 44.5 -23.5t103.5 -39.5q78 -30 113.5 -48t64.5 -44q46 -43 73 -112.5t27 -147.5q0 -118 -54.5 -205t-172.5 -156q62 -53 90.5 -112.5t28.5 -137.5q0 -161 -114 -259.5t-300 -98.5 q-128 0 -227 48.5t-142 131.5q-36 74 -39 236zM403 582q0 -91 55 -147t144 -56q86 0 146.5 59.5t60.5 145.5q0 87 -59.5 145.5t-147.5 58.5q-85 0 -142 -59t-57 -147z" />
<glyph unicode="&#xa8;" horiz-adv-x="1024" d="M262 1120q0 57 40 96t99 39q55 0 94.5 -39.5t39.5 -95.5q0 -57 -40 -97t-96 -40q-57 0 -97 40t-40 97zM645 1120q0 58 39 96.5t98 38.5q56 0 96 -40t40 -95q0 -57 -40.5 -97t-97.5 -40t-96 39.5t-39 97.5z" />
<glyph unicode="&#xa9;" horiz-adv-x="1501" d="M68 682q0 147 56.5 279.5t152 228t229 151.5t282.5 56q141 0 270.5 -57t223 -153.5t149.5 -228.5t56 -276q0 -116 -36 -224.5t-101.5 -196.5t-152.5 -154t-195.5 -102t-223.5 -36q-144 0 -275.5 56.5t-226.5 152t-151.5 227.5t-56.5 277zM209 682q0 -157 77 -292 t208.5 -214.5t283.5 -79.5q154 0 284 78.5t205.5 213.5t75.5 294t-74.5 294t-203 213.5t-279.5 78.5q-159 0 -292 -77.5t-209 -212t-76 -296.5zM379 657q0 197 130 324t331 127q145 0 254 -70l-25 -207q-72 54 -119.5 73.5t-107.5 19.5q-109 0 -181.5 -75.5t-72.5 -189.5 q0 -96 60.5 -156.5t156.5 -60.5q57 0 103 19t124 74l-26 -218q-53 -33 -101.5 -46t-118.5 -13q-178 0 -292.5 112t-114.5 287z" />
<glyph unicode="&#xaa;" horiz-adv-x="694" d="M82 629l14 112h572l-15 -112h-571zM125 1081q0 129 77 215t193 86q50 0 82 -12.5t76 -50.5l10 47h182l-63 -508h-186l4 39q-47 -32 -79 -43.5t-73 -11.5q-99 0 -161 66.5t-62 172.5zM322 1104q0 -47 26.5 -77t69.5 -30q51 0 84 39t33 97q0 49 -26 77.5t-69 28.5 q-49 0 -83.5 -39.5t-34.5 -95.5z" />
<glyph unicode="&#xab;" horiz-adv-x="931" d="M63 424l324 397l125 -108l-248 -297l172 -277l-139 -90zM432 424l324 397l125 -108l-248 -297l170 -277l-137 -90z" />
<glyph unicode="&#xac;" horiz-adv-x="1024" d="M92 307v240h887v-547h-266v307h-621z" />
<glyph unicode="&#xad;" horiz-adv-x="440" d="M-18 319l26 209h441l-27 -209h-440z" />
<glyph unicode="&#xae;" horiz-adv-x="1501" d="M68 682q0 147 56.5 279.5t152 228t229 151.5t282.5 56q141 0 270.5 -57t223 -153.5t149.5 -228.5t56 -276q0 -116 -36 -224.5t-101.5 -196.5t-152.5 -154t-195.5 -102t-223.5 -36q-144 0 -275.5 56.5t-226.5 152t-151.5 227.5t-56.5 277zM209 682q0 -157 77 -292 t208.5 -214.5t283.5 -79.5q154 0 284 78.5t205.5 213.5t75.5 294t-74.5 294t-203 213.5t-279.5 78.5q-159 0 -292 -77.5t-209 -212t-76 -296.5zM438 272l103 820h219q165 0 238 -54t73 -174q0 -98 -51 -165t-141 -87l219 -340h-232l-194 301l-37 -301h-197zM692 727h39 q72 0 104.5 27.5t32.5 87.5q0 48 -22.5 66t-83.5 18h-45z" />
<glyph unicode="&#xaf;" horiz-adv-x="1024" d="M266 1032l21 164h655l-18 -164h-658z" />
<glyph unicode="&#xb0;" d="M387 1124q0 110 80 189.5t192 79.5q114 0 194.5 -79.5t80.5 -193.5q0 -112 -80.5 -193t-191.5 -81q-116 0 -195.5 80.5t-79.5 197.5zM524 1122q0 -56 41.5 -97.5t96.5 -41.5q54 0 94.5 41t40.5 96q0 58 -39 96.5t-96 38.5t-97.5 -39t-40.5 -94z" />
<glyph unicode="&#xb1;" d="M111 -55v190h997v-190h-997zM111 602v191h401v389h195v-389h401v-191h-401v-401h-195v401h-401z" />
<glyph unicode="&#xb2;" horiz-adv-x="792" d="M82 547l297 297q122 122 158 176.5t36 114.5q0 47 -27.5 73.5t-74.5 26.5q-60 0 -91 -35.5t-40 -112.5h-168q10 101 43 160q35 63 103 99t153 36q121 0 197.5 -70.5t76.5 -183.5q0 -93 -62.5 -179.5t-250.5 -254.5h289l-19 -147h-620z" />
<glyph unicode="&#xb3;" horiz-adv-x="792" d="M152 793h170q3 -63 29 -91t81 -28t86 32t31 89q0 58 -34.5 81t-121.5 23l17 137q14 -2 36 -2q127 0 127 109q0 44 -26 70t-72 26q-50 0 -76.5 -27t-36.5 -88h-169q17 126 90 192t196 66q119 0 188.5 -59t69.5 -160q0 -67 -30.5 -111t-98.5 -75q60 -29 86.5 -71t26.5 -111 q0 -122 -81 -193.5t-220 -71.5q-138 0 -202.5 62.5t-65.5 200.5z" />
<glyph unicode="&#xb4;" horiz-adv-x="1024" d="M467 1047l254 270l184 -152l-307 -209z" />
<glyph unicode="&#xb5;" horiz-adv-x="1034" d="M14 -383l148 1210h252l-54 -440q-6 -37 -6 -68q0 -60 38 -94.5t104 -34.5q75 0 110.5 47t50.5 164l52 426h252l-54 -432q-15 -120 -35.5 -185t-58.5 -112q-102 -127 -309 -127q-122 0 -221 58l-17 -412h-252z" />
<glyph unicode="&#xb6;" d="M98 1001q0 184 109 274.5t330 90.5h667l-28 -231h-150l-164 -1323h-211l162 1323h-176l-162 -1323h-213l109 880h-21q-115 0 -183.5 84t-68.5 225z" />
<glyph unicode="&#xb7;" horiz-adv-x="546" d="M111 424q0 66 46 111t113 45q64 0 109 -45.5t45 -110.5q0 -66 -45.5 -112t-110.5 -46q-66 0 -111.5 46t-45.5 112z" />
<glyph unicode="&#xb8;" horiz-adv-x="1024" d="M311 -340l176 248l148 -92l-207 -236z" />
<glyph unicode="&#xb9;" horiz-adv-x="792" d="M332 1219l18 147h283l-103 -819h-172l82 672h-108z" />
<glyph unicode="&#xba;" horiz-adv-x="694" d="M82 629l14 112h572l-15 -112h-571zM125 1102q0 118 88 199t217 81q126 0 206.5 -73.5t80.5 -188.5q0 -118 -85.5 -198t-211.5 -80q-131 0 -213 72.5t-82 187.5zM319 1106q0 -47 28 -78t69 -31q46 0 76 34.5t30 88.5q0 49 -26 77t-70 28q-47 0 -77 -33t-30 -86z" />
<glyph unicode="&#xbb;" horiz-adv-x="931" d="M41 133l248 299l-170 277l137 88l233 -373l-323 -399zM410 133l247 299l-172 277l138 88l235 -373l-326 -399z" />
<glyph unicode="&#xbc;" horiz-adv-x="1894" d="M326 1219l18 147h283l-103 -819h-172l82 672h-108zM655 23l510 1361l127 -41l-508 -1361zM1151 172l18 143l412 504h188l-63 -518h96l-16 -129h-96l-21 -172h-172l23 172h-369zM1321 301h215l39 320z" />
<glyph unicode="&#xbd;" horiz-adv-x="1894" d="M326 1219l18 147h283l-103 -819h-172l82 672h-108zM655 23l510 1361l127 -41l-508 -1361zM1124 0l297 299q120 120 157.5 176t37.5 115q0 46 -28 72t-77 26q-60 0 -91 -34.5t-38 -110.5h-168q8 101 43 157q35 63 103.5 99.5t152.5 36.5q120 0 197.5 -71t77.5 -181 q0 -92 -63 -179.5t-252 -257.5h290l-20 -147h-619z" />
<glyph unicode="&#xbe;" horiz-adv-x="1894" d="M143 793h170q3 -63 29 -91t82 -28q55 0 86 32t31 89q0 58 -34.5 81t-121.5 23l16 137q14 -2 37 -2q127 0 127 109q0 44 -26 70t-72 26q-50 0 -76.5 -27t-36.5 -88h-170q17 126 90.5 192t196.5 66q119 0 188.5 -59t69.5 -160q0 -67 -30.5 -111t-98.5 -75q60 -29 86.5 -71 t26.5 -111q0 -122 -81 -193.5t-220 -71.5q-138 0 -203 62.5t-66 200.5zM655 23l508 1361l127 -41l-506 -1361zM1151 172l18 143l412 504h188l-63 -518h96l-16 -129h-96l-23 -172h-170l21 172h-367zM1319 301h215l39 320z" />
<glyph unicode="&#xbf;" horiz-adv-x="962" d="M16 43q0 104 42.5 194.5t117.5 147.5q43 32 86 47t109 19l20 174h250l-47 -383q-50 6 -78 6q-117 0 -178.5 -50t-61.5 -147q0 -75 46.5 -121.5t121.5 -46.5q156 0 177 180h223q-12 -106 -33.5 -168.5t-62.5 -111.5q-55 -67 -139 -103t-185 -36q-183 0 -295.5 109.5 t-112.5 289.5zM393 909q0 64 47 110t113 46q64 0 109 -46t45 -112t-45 -110.5t-111 -44.5t-112 45.5t-46 111.5z" />
<glyph unicode="&#xc0;" horiz-adv-x="1269" d="M-31 0l688 1366h265l290 -1366h-282l-45 223h-504l-111 -223h-301zM494 475h342l-68 340q-18 82 -18 150q0 23 2 43l2 26l-19 2q-12 -58 -29 -103.5t-61 -141.5zM537 1683l202 109l162 -256l-135 -68z" />
<glyph unicode="&#xc1;" horiz-adv-x="1269" d="M-31 0l688 1366h265l290 -1366h-282l-45 223h-504l-111 -223h-301zM494 475h342l-68 340q-18 82 -18 150q0 23 2 43l2 26l-19 2q-12 -58 -29 -103.5t-61 -141.5zM680 1571l285 221l149 -170l-328 -154z" />
<glyph unicode="&#xc2;" horiz-adv-x="1269" d="M-31 0l688 1366h265l290 -1366h-282l-45 223h-504l-111 -223h-301zM492 1593l378 203l252 -221l-125 -107l-166 136l-253 -136zM494 475h342l-68 340q-18 82 -18 150q0 23 2 43l2 26l-19 2q-12 -58 -29 -103.5t-61 -141.5z" />
<glyph unicode="&#xc3;" horiz-adv-x="1269" d="M-31 0l688 1366h265l290 -1366h-282l-45 223h-504l-111 -223h-301zM436 1503q31 120 95 183t155 63q62 0 145 -49q73 -41 113 -41q36 0 57 16.5t41 61.5h140q-68 -246 -256 -246q-64 0 -142 41q-60 30 -80.5 37.5t-44.5 7.5q-32 0 -50.5 -15.5t-35.5 -58.5h-137zM494 475 h342l-68 340q-18 82 -18 150q0 23 2 43l2 26l-19 2q-12 -58 -29 -103.5t-61 -141.5z" />
<glyph unicode="&#xc4;" horiz-adv-x="1269" d="M-31 0l688 1366h265l290 -1366h-282l-45 223h-504l-111 -223h-301zM463 1626q0 60 41 100.5t104 40.5q57 0 99.5 -42.5t42.5 -100.5t-43.5 -100.5t-100.5 -42.5q-60 0 -101.5 42t-41.5 103zM494 475h342l-68 340q-18 82 -18 150q0 23 2 43l2 26l-19 2q-12 -58 -29 -103.5 t-61 -141.5zM858 1626q0 60 42 100.5t104 40.5q59 0 100 -41.5t41 -101.5q0 -58 -42.5 -100.5t-101.5 -42.5q-60 0 -101.5 42.5t-41.5 102.5z" />
<glyph unicode="&#xc5;" horiz-adv-x="1269" d="M-31 0l688 1366h265l290 -1366h-282l-45 223h-504l-111 -223h-301zM494 475h342l-68 340q-18 82 -18 150q0 23 2 43l2 26l-19 2q-12 -58 -29 -103.5t-61 -141.5zM604 1667q0 85 60.5 144t148.5 59q83 0 142 -60t59 -145t-60 -145t-145 -60t-145 60.5t-60 146.5zM731 1667 q0 -34 23 -57t55 -23q33 0 55.5 22.5t22.5 55.5q0 34 -22 56t-54 22q-35 0 -57.5 -21t-22.5 -55z" />
<glyph unicode="&#xc6;" horiz-adv-x="1830" d="M-31 0l707 1366h721l63 -252h-452l67 -305h459l61 -252h-460l69 -305h467l62 -252h-754l-49 219h-547l-117 -219h-297zM500 471h374l-83 381q-17 83 -17 139q0 29 2 62l-14 2q-7 -49 -20 -85.5t-46 -103.5z" />
<glyph unicode="&#xc7;" horiz-adv-x="1214" d="M111 635q0 163 54.5 304t150 240.5t230.5 156.5t292 57q115 0 206 -26t181 -83l-37 -301q-94 74 -173.5 105.5t-172.5 31.5q-187 0 -313 -138.5t-126 -344.5q0 -173 102 -282t265 -109q88 0 167 31t177 104l-39 -318q-139 -90 -330 -90q-130 0 -251 50t-207 139 q-176 182 -176 473zM422 -340l219 244l158 -107l-238 -229z" />
<glyph unicode="&#xc8;" horiz-adv-x="960" d="M100 0l168 1366h707l-31 -252h-434l-37 -303h418l-31 -252h-418l-36 -307h434l-33 -252h-707zM428 1683l203 109l162 -256l-134 -68z" />
<glyph unicode="&#xc9;" horiz-adv-x="960" d="M100 0l168 1366h707l-31 -252h-434l-37 -303h418l-31 -252h-418l-36 -307h434l-33 -252h-707zM485 1571l285 221l148 -170l-326 -154z" />
<glyph unicode="&#xca;" horiz-adv-x="960" d="M100 0l168 1366h707l-31 -252h-434l-37 -303h418l-31 -252h-418l-36 -307h434l-33 -252h-707zM330 1593l377 203l251 -221l-124 -107l-164 136l-254 -136z" />
<glyph unicode="&#xcb;" horiz-adv-x="960" d="M100 0l168 1366h707l-31 -252h-434l-37 -303h418l-31 -252h-418l-36 -307h434l-33 -252h-707zM307 1626q0 59 43.5 100t104.5 41q58 0 98.5 -41.5t40.5 -101.5t-41.5 -101.5t-101.5 -41.5q-59 0 -101.5 42.5t-42.5 102.5zM705 1626q0 60 41.5 100.5t103.5 40.5 q58 0 99.5 -42t41.5 -101q0 -58 -42.5 -100.5t-100.5 -42.5q-60 0 -101.5 42.5t-41.5 102.5z" />
<glyph unicode="&#xcc;" horiz-adv-x="587" d="M100 0l168 1366h275l-168 -1366h-275zM168 1683l205 109l162 -256l-136 -68z" />
<glyph unicode="&#xcd;" horiz-adv-x="587" d="M100 0l168 1366h275l-168 -1366h-275zM299 1571l250 221l143 -162l-286 -162z" />
<glyph unicode="&#xce;" horiz-adv-x="587" d="M100 0l168 1366h275l-168 -1366h-275zM131 1593l365 203l237 -221l-125 -107l-151 136l-240 -136z" />
<glyph unicode="&#xcf;" horiz-adv-x="587" d="M100 0l168 1366h275l-168 -1366h-275zM119 1624q0 58 41 98.5t100 40.5q55 0 96 -41.5t41 -97.5q0 -57 -41 -98t-98 -41q-58 0 -98.5 40.5t-40.5 98.5zM475 1624q0 57 42 98t99 41q56 0 97 -41t41 -98q0 -58 -40.5 -98.5t-99.5 -40.5q-57 0 -98 41t-41 98z" />
<glyph unicode="&#xd0;" horiz-adv-x="1335" d="M53 594l25 205h119l71 567h348q170 0 269 -21t178 -75q105 -72 160 -205.5t55 -316.5q0 -228 -89.5 -408t-242.5 -256q-169 -84 -467 -84h-381l74 594h-119zM403 246h62q110 0 181 13t128 44q99 56 155 178t56 283q0 266 -178 332q-73 24 -223 24h-74l-39 -321h272 l-24 -205h-273z" />
<glyph unicode="&#xd1;" horiz-adv-x="1533" d="M100 0l168 1366h275l467 -776q65 -106 96 -217l16 4q-8 63 -8 104q0 69 10 140l90 745h275l-168 -1366h-274l-455 748q-93 161 -111 239l-14 -4q10 -76 10 -109q0 -7 -1 -21.5t-2.5 -35t-2.5 -31.5l-98 -786h-273zM551 1503q32 121 96 183.5t156 62.5q60 0 143 -49 q73 -41 115 -41q35 0 55.5 16.5t40.5 61.5h139q-64 -246 -254 -246q-63 0 -141 41q-62 30 -82 37.5t-43 7.5q-33 0 -51 -15.5t-37 -58.5h-137z" />
<glyph unicode="&#xd2;" horiz-adv-x="1556" d="M111 643q0 159 55.5 298.5t152 238.5t232 156t289.5 57q296 0 478.5 -181.5t182.5 -474.5q0 -153 -50.5 -290t-147.5 -244q-207 -230 -529 -230q-299 0 -487 191q-91 94 -133.5 209.5t-42.5 269.5zM403 641q0 -178 104.5 -286.5t274.5 -108.5q199 0 312 149 q55 70 84.5 157.5t29.5 176.5q0 79 -26 154t-72 129q-92 108 -264 108q-190 0 -316.5 -136.5t-126.5 -342.5zM686 1683l203 109l162 -256l-133 -68z" />
<glyph unicode="&#xd3;" horiz-adv-x="1556" d="M111 643q0 159 55.5 298.5t152 238.5t232 156t289.5 57q296 0 478.5 -181.5t182.5 -474.5q0 -153 -50.5 -290t-147.5 -244q-207 -230 -529 -230q-299 0 -487 191q-91 94 -133.5 209.5t-42.5 269.5zM403 641q0 -178 104.5 -286.5t274.5 -108.5q199 0 312 149 q55 70 84.5 157.5t29.5 176.5q0 79 -26 154t-72 129q-92 108 -264 108q-190 0 -316.5 -136.5t-126.5 -342.5zM788 1571l285 221l150 -170l-328 -154z" />
<glyph unicode="&#xd4;" horiz-adv-x="1556" d="M111 643q0 159 55.5 298.5t152 238.5t232 156t289.5 57q296 0 478.5 -181.5t182.5 -474.5q0 -153 -50.5 -290t-147.5 -244q-207 -230 -529 -230q-299 0 -487 191q-91 94 -133.5 209.5t-42.5 269.5zM403 641q0 -178 104.5 -286.5t274.5 -108.5q199 0 312 149 q55 70 84.5 157.5t29.5 176.5q0 79 -26 154t-72 129q-92 108 -264 108q-190 0 -316.5 -136.5t-126.5 -342.5zM614 1593l377 203l252 -221l-123 -107l-166 136l-254 -136z" />
<glyph unicode="&#xd5;" horiz-adv-x="1556" d="M111 643q0 159 55.5 298.5t152 238.5t232 156t289.5 57q296 0 478.5 -181.5t182.5 -474.5q0 -153 -50.5 -290t-147.5 -244q-207 -230 -529 -230q-299 0 -487 191q-91 94 -133.5 209.5t-42.5 269.5zM403 641q0 -178 104.5 -286.5t274.5 -108.5q199 0 312 149 q55 70 84.5 157.5t29.5 176.5q0 79 -26 154t-72 129q-92 108 -264 108q-190 0 -316.5 -136.5t-126.5 -342.5zM551 1503q32 121 96 183.5t156 62.5q60 0 143 -49q73 -41 113 -41q36 0 57 16.5t41 61.5h139q-64 -246 -254 -246q-66 0 -141 41q-62 30 -82.5 37.5t-44.5 7.5 q-32 0 -49.5 -15.5t-36.5 -58.5h-137z" />
<glyph unicode="&#xd6;" horiz-adv-x="1556" d="M111 643q0 159 55.5 298.5t152 238.5t232 156t289.5 57q296 0 478.5 -181.5t182.5 -474.5q0 -153 -50.5 -290t-147.5 -244q-207 -230 -529 -230q-299 0 -487 191q-91 94 -133.5 209.5t-42.5 269.5zM403 641q0 -178 104.5 -286.5t274.5 -108.5q199 0 312 149 q55 70 84.5 157.5t29.5 176.5q0 79 -26 154t-72 129q-92 108 -264 108q-190 0 -316.5 -136.5t-126.5 -342.5zM578 1626q0 60 41.5 100.5t103.5 40.5q59 0 100 -41.5t41 -101.5q0 -58 -42 -100.5t-101 -42.5q-60 0 -101.5 42.5t-41.5 102.5zM973 1626q0 58 42.5 99.5 t102.5 41.5q59 0 100.5 -41.5t41.5 -101.5q0 -59 -42 -101t-102 -42q-59 0 -101 42.5t-42 102.5z" />
<glyph unicode="&#xd7;" d="M158 1028l125 121l319 -322l320 324l141 -137l-322 -324l320 -321l-125 -121l-318 315l-313 -315l-137 135l313 319z" />
<glyph unicode="&#xd8;" horiz-adv-x="1583" d="M55 133l158 148q-51 94 -69.5 169.5t-18.5 180.5q0 163 55 304.5t151 242t231.5 158t291.5 57.5q248 0 432 -138l164 148l137 -154l-166 -149q54 -98 74.5 -177t20.5 -184q0 -315 -199 -536q-205 -230 -531 -230q-133 0 -234.5 35t-205.5 117l-162 -148zM418 633 q0 -75 26 -152l621 584q-52 32 -95 43.5t-108 11.5q-194 0 -319 -137.5t-125 -349.5zM569 315q90 -69 232 -69q193 0 309 149q113 148 113 334q0 81 -31 170z" />
<glyph unicode="&#xd9;" horiz-adv-x="1359" d="M156 375q0 78 16 217l96 774h273l-92 -754q-15 -117 -15 -161q0 -205 228 -205q140 0 200 78t86 294l92 748h273l-99 -803q-20 -168 -48.5 -261.5t-78.5 -156.5q-137 -172 -442 -172q-238 0 -363.5 103.5t-125.5 298.5zM584 1683l204 109l162 -256l-135 -68z" />
<glyph unicode="&#xda;" horiz-adv-x="1359" d="M156 375q0 78 16 217l96 774h273l-92 -754q-15 -117 -15 -161q0 -205 228 -205q140 0 200 78t86 294l92 748h273l-99 -803q-20 -168 -48.5 -261.5t-78.5 -156.5q-137 -172 -442 -172q-238 0 -363.5 103.5t-125.5 298.5zM684 1571l285 221l149 -170l-327 -154z" />
<glyph unicode="&#xdb;" horiz-adv-x="1359" d="M156 375q0 78 16 217l96 774h273l-92 -754q-15 -117 -15 -161q0 -205 228 -205q140 0 200 78t86 294l92 748h273l-99 -803q-20 -168 -48.5 -261.5t-78.5 -156.5q-137 -172 -442 -172q-238 0 -363.5 103.5t-125.5 298.5zM506 1593l379 203l252 -221l-125 -107l-166 136 l-254 -136z" />
<glyph unicode="&#xdc;" horiz-adv-x="1359" d="M156 375q0 78 16 217l96 774h273l-92 -754q-15 -117 -15 -161q0 -205 228 -205q140 0 200 78t86 294l92 748h273l-99 -803q-20 -168 -48.5 -261.5t-78.5 -156.5q-137 -172 -442 -172q-238 0 -363.5 103.5t-125.5 298.5zM477 1626q0 60 42 100.5t104 40.5q59 0 100 -41.5 t41 -101.5q0 -58 -42 -100.5t-101 -42.5t-101.5 42.5t-42.5 102.5zM872 1626q0 59 43.5 100t104.5 41q58 0 98.5 -41.5t40.5 -101.5t-41.5 -101.5t-101.5 -41.5q-59 0 -101.5 42.5t-42.5 102.5z" />
<glyph unicode="&#xdd;" horiz-adv-x="1146" d="M96 1366h312l204 -469l314 469h331l-524 -766l-74 -600h-272l74 600zM569 1571l285 221l150 -170l-326 -154z" />
<glyph unicode="&#xde;" horiz-adv-x="1095" d="M100 0l168 1366h275l-25 -192h45q126 0 206 -14t140 -46q78 -41 124 -134.5t46 -213.5q0 -130 -52 -229.5t-146 -149.5q-69 -37 -145 -51t-204 -14h-118l-41 -322h-273zM442 557h82q73 0 112 8t69 29q37 26 59 73.5t22 100.5q0 42 -14 77t-39 52q-24 15 -57.5 21 t-104.5 6h-84z" />
<glyph unicode="&#xdf;" horiz-adv-x="1079" d="M61 0l119 969q22 169 46.5 253.5t68.5 141.5q57 72 148 113t198 41q175 0 276 -94t101 -257q0 -157 -76 -245q-26 -32 -60.5 -53t-99.5 -44q62 -31 93 -52t55 -50q82 -91 82 -250q0 -153 -75 -271.5t-200 -164.5q-52 -20 -117.5 -27.5t-187.5 -9.5l29 240h43 q112 0 174.5 69t62.5 191q0 104 -54 153t-169 49l29 236h20h13q82 -4 137 59t55 160q0 75 -36.5 117.5t-100.5 42.5q-65 0 -106 -39.5t-64 -124.5q-20 -80 -35 -207l-117 -946h-252z" />
<glyph unicode="&#xe0;" horiz-adv-x="1095" d="M66 358q0 215 117.5 355.5t297.5 140.5q89 0 148.5 -31t128.5 -114l14 118h248l-100 -827h-256l22 117q-74 -80 -137 -112t-148 -32q-152 0 -243.5 105.5t-91.5 279.5zM338 395q0 -92 47 -145t127 -53q94 0 154.5 73.5t60.5 186.5q0 89 -46.5 142.5t-123.5 53.5 q-92 0 -155.5 -75t-63.5 -183zM383 1210l219 107l156 -293l-146 -68z" />
<glyph unicode="&#xe1;" horiz-adv-x="1095" d="M66 358q0 215 117.5 355.5t297.5 140.5q89 0 148.5 -31t128.5 -114l14 118h248l-100 -827h-256l22 117q-74 -80 -137 -112t-148 -32q-152 0 -243.5 105.5t-91.5 279.5zM338 395q0 -92 47 -145t127 -53q94 0 154.5 73.5t60.5 186.5q0 89 -46.5 142.5t-123.5 53.5 q-92 0 -155.5 -75t-63.5 -183zM489 1047l254 270l185 -152l-310 -209z" />
<glyph unicode="&#xe2;" horiz-adv-x="1095" d="M66 358q0 215 117.5 355.5t297.5 140.5q89 0 148.5 -31t128.5 -114l14 118h248l-100 -827h-256l22 117q-74 -80 -137 -112t-148 -32q-152 0 -243.5 105.5t-91.5 279.5zM338 395q0 -92 47 -145t127 -53q94 0 154.5 73.5t60.5 186.5q0 89 -46.5 142.5t-123.5 53.5 q-92 0 -155.5 -75t-63.5 -183zM338 1094l360 227l248 -272l-149 -93l-133 150l-224 -150z" />
<glyph unicode="&#xe3;" horiz-adv-x="1095" d="M66 358q0 215 117.5 355.5t297.5 140.5q89 0 148.5 -31t128.5 -114l14 118h248l-100 -827h-256l22 117q-74 -80 -137 -112t-148 -32q-152 0 -243.5 105.5t-91.5 279.5zM295 1006q31 118 92.5 181.5t144.5 63.5q34 0 64 -10t82 -39q70 -41 113 -41q34 0 54 17t40 61h137 q-31 -121 -94 -183.5t-154 -62.5q-66 0 -141 41q-62 32 -79 38.5t-40 6.5q-32 0 -51 -16.5t-31 -56.5h-137zM338 395q0 -92 47 -145t127 -53q94 0 154.5 73.5t60.5 186.5q0 89 -46.5 142.5t-123.5 53.5q-92 0 -155.5 -75t-63.5 -183z" />
<glyph unicode="&#xe4;" horiz-adv-x="1095" d="M66 358q0 215 117.5 355.5t297.5 140.5q89 0 148.5 -31t128.5 -114l14 118h248l-100 -827h-256l22 117q-74 -80 -137 -112t-148 -32q-152 0 -243.5 105.5t-91.5 279.5zM311 1120q0 55 41.5 95t98.5 40q56 0 94.5 -39t38.5 -96q0 -58 -39 -97.5t-96 -39.5t-97.5 40 t-40.5 97zM338 395q0 -92 47 -145t127 -53q94 0 154.5 73.5t60.5 186.5q0 89 -46.5 142.5t-123.5 53.5q-92 0 -155.5 -75t-63.5 -183zM694 1120q0 57 40.5 96t99.5 39q56 0 94.5 -39t38.5 -96q0 -58 -39.5 -97.5t-96.5 -39.5t-97 40t-40 97z" />
<glyph unicode="&#xe5;" horiz-adv-x="1095" d="M66 358q0 215 117.5 355.5t297.5 140.5q89 0 148.5 -31t128.5 -114l14 118h248l-100 -827h-256l22 117q-74 -80 -137 -112t-148 -32q-152 0 -243.5 105.5t-91.5 279.5zM338 395q0 -92 47 -145t127 -53q94 0 154.5 73.5t60.5 186.5q0 89 -46.5 142.5t-123.5 53.5 q-92 0 -155.5 -75t-63.5 -183zM442 1149q0 82 59 139.5t142 57.5q80 0 137.5 -58.5t57.5 -140.5q0 -83 -57 -140t-140 -57t-141 58t-58 141zM561 1149q0 -32 24 -56t56 -24t55 23t23 55t-23.5 56t-54.5 24q-32 0 -56 -23.5t-24 -54.5z" />
<glyph unicode="&#xe6;" horiz-adv-x="1542" d="M35 258q0 128 94.5 208.5t243.5 80.5q94 0 158.5 -26t127.5 -89q3 30 3 57q0 54 -16 88.5t-52 57.5q-65 45 -170 45q-55 0 -103 -11.5t-147 -47.5l23 186q132 47 256 47q128 0 206.5 -37t128.5 -121q73 87 143.5 122.5t170.5 35.5q169 0 270 -108.5t101 -292.5 q0 -32 -5 -91h-606q2 -77 21 -118q19 -40 61.5 -63t99.5 -23q64 0 107 23.5t94 86.5l185 -69q-74 -119 -163.5 -172.5t-213.5 -53.5q-105 0 -181.5 32t-138.5 101q-77 -73 -153 -103t-179 -30q-167 0 -266.5 77.5t-99.5 207.5zM258 258q0 -46 48 -73t130 -27q80 0 130 29.5 t50 76.5q0 45 -46.5 70.5t-129.5 25.5t-132.5 -28t-49.5 -74zM905 516h332q-2 87 -31.5 122.5t-101.5 35.5t-115 -34t-84 -124z" />
<glyph unicode="&#xe7;" horiz-adv-x="770" d="M61 379q0 214 123 344.5t324 130.5q69 0 122.5 -11t123.5 -40l-43 -230q-90 41 -176 41q-95 0 -149 -59.5t-54 -163.5q0 -85 45 -129.5t131 -44.5q49 0 84.5 9t93.5 36l-47 -258q-108 -31 -193 -31q-180 0 -282.5 108.5t-102.5 297.5zM162 -340l176 248l147 -92 l-206 -236z" />
<glyph unicode="&#xe8;" horiz-adv-x="989" d="M63 391q0 203 129 333t330 130q186 0 292 -112t106 -308q0 -5 -5 -76h-606q10 -68 37 -106q23 -28 64 -45t86 -17q43 0 76.5 13t74.5 45l217 -86q-52 -92 -148 -140.5t-227 -48.5q-195 0 -310.5 113t-115.5 305zM332 528h360q-8 72 -44.5 106t-106.5 34 q-73 0 -120.5 -31.5t-88.5 -108.5zM332 1210l219 107l156 -293l-148 -68z" />
<glyph unicode="&#xe9;" horiz-adv-x="989" d="M63 391q0 203 129 333t330 130q186 0 292 -112t106 -308q0 -5 -5 -76h-606q10 -68 37 -106q23 -28 64 -45t86 -17q43 0 76.5 13t74.5 45l217 -86q-52 -92 -148 -140.5t-227 -48.5q-195 0 -310.5 113t-115.5 305zM332 528h360q-8 72 -44.5 106t-106.5 34 q-73 0 -120.5 -31.5t-88.5 -108.5zM422 1047l256 270l182 -152l-307 -209z" />
<glyph unicode="&#xea;" horiz-adv-x="989" d="M63 391q0 203 129 333t330 130q186 0 292 -112t106 -308q0 -5 -5 -76h-606q10 -68 37 -106q23 -28 64 -45t86 -17q43 0 76.5 13t74.5 45l217 -86q-52 -92 -148 -140.5t-227 -48.5q-195 0 -310.5 113t-115.5 305zM264 1094l363 227l247 -272l-149 -93l-135 150l-223 -150z M332 528h360q-8 72 -44.5 106t-106.5 34q-73 0 -120.5 -31.5t-88.5 -108.5z" />
<glyph unicode="&#xeb;" horiz-adv-x="989" d="M63 391q0 203 129 333t330 130q186 0 292 -112t106 -308q0 -5 -5 -76h-606q10 -68 37 -106q23 -28 64 -45t86 -17q43 0 76.5 13t74.5 45l217 -86q-52 -92 -148 -140.5t-227 -48.5q-195 0 -310.5 113t-115.5 305zM252 1120q0 55 41 95t98 40q56 0 94.5 -39t38.5 -96 q0 -58 -39 -97.5t-96 -39.5t-97 40t-40 97zM332 528h360q-8 72 -44.5 106t-106.5 34q-73 0 -120.5 -31.5t-88.5 -108.5zM635 1120q0 57 40 96t99 39q56 0 94.5 -39t38.5 -96q0 -58 -39 -97.5t-96 -39.5t-97 40t-40 97z" />
<glyph unicode="&#xec;" horiz-adv-x="489" d="M39 1210l219 107l156 -293l-146 -68zM61 0l101 827h252l-103 -827h-250z" />
<glyph unicode="&#xed;" horiz-adv-x="489" d="M61 0l103 827h250l-101 -827h-252zM199 1047l235 270l182 -152l-286 -209z" />
<glyph unicode="&#xee;" horiz-adv-x="489" d="M20 1094l355 227l241 -272l-149 -93l-127 150l-217 -150zM61 0l103 827h250l-101 -827h-252z" />
<glyph unicode="&#xef;" horiz-adv-x="489" d="M12 1120q0 57 40.5 96t99.5 39q55 0 94 -39.5t39 -95.5q0 -57 -39.5 -97t-95.5 -40q-57 0 -97.5 40t-40.5 97zM61 0l103 827h252l-103 -827h-252zM360 1120q0 57 40.5 96t99.5 39q56 0 94.5 -39t38.5 -96t-39 -97t-96 -40t-97.5 40t-40.5 97z" />
<glyph unicode="&#xf0;" horiz-adv-x="1048" d="M66 389q0 198 133.5 331.5t332.5 133.5q46 0 76 -7.5t68 -29.5q-28 155 -158 326l-219 -127l-76 133l185 111q-23 23 -82 64t-115 73l123 110q134 -57 246 -149l213 123l88 -129l-185 -109q70 -74 108.5 -131t74.5 -141q104 -234 104 -463q0 -250 -124.5 -392.5 t-342.5 -142.5q-201 0 -325.5 115t-124.5 301zM336 397q0 -92 47 -147t125 -55q86 0 143.5 68t57.5 171q0 88 -49.5 142.5t-127.5 54.5q-86 0 -141 -66t-55 -168z" />
<glyph unicode="&#xf1;" horiz-adv-x="1024" d="M61 0l103 827h250l-15 -125q74 87 134 120.5t139 33.5q126 0 196 -70q29 -26 40.5 -59t11.5 -90q0 -21 -5 -88l-69 -549h-250l55 455q6 37 6 71q0 105 -112 105q-45 0 -86.5 -24.5t-61.5 -63.5q-21 -47 -30 -133l-52 -410h-254zM236 1006q31 119 91.5 182t145.5 63 q34 0 63.5 -10t81.5 -39q70 -41 113 -41q32 0 52 17t40 61h140q-65 -246 -250 -246q-68 0 -140 41q-61 31 -79 38t-39 7q-33 0 -51.5 -16.5t-30.5 -56.5h-137z" />
<glyph unicode="&#xf2;" horiz-adv-x="1050" d="M63 395q0 195 135.5 327t336.5 132q196 0 318 -118.5t122 -307.5q0 -195 -131 -325t-328 -130q-203 0 -328 116.5t-125 305.5zM334 397q0 -92 47 -146t127 -54q88 0 142.5 65.5t54.5 171.5q0 92 -46.5 144.5t-126.5 52.5q-88 0 -143 -65.5t-55 -168.5zM356 1210l222 107 l153 -293l-145 -68z" />
<glyph unicode="&#xf3;" horiz-adv-x="1050" d="M63 395q0 195 135.5 327t336.5 132q196 0 318 -118.5t122 -307.5q0 -195 -131 -325t-328 -130q-203 0 -328 116.5t-125 305.5zM334 397q0 -92 47 -146t127 -54q88 0 142.5 65.5t54.5 171.5q0 92 -46.5 144.5t-126.5 52.5q-88 0 -143 -65.5t-55 -168.5zM455 1047l254 270 l182 -152l-307 -209z" />
<glyph unicode="&#xf4;" horiz-adv-x="1050" d="M63 395q0 195 135.5 327t336.5 132q196 0 318 -118.5t122 -307.5q0 -195 -131 -325t-328 -130q-203 0 -328 116.5t-125 305.5zM295 1094l362 227l248 -272l-149 -93l-135 150l-224 -150zM334 397q0 -92 47 -146t127 -54q88 0 142.5 65.5t54.5 171.5q0 92 -46.5 144.5 t-126.5 52.5q-88 0 -143 -65.5t-55 -168.5z" />
<glyph unicode="&#xf5;" horiz-adv-x="1050" d="M63 395q0 195 135.5 327t336.5 132q196 0 318 -118.5t122 -307.5q0 -195 -131 -325t-328 -130q-203 0 -328 116.5t-125 305.5zM250 1006q31 119 91.5 182t145.5 63q34 0 64 -10t82 -39q70 -41 112 -41q32 0 52.5 17t40.5 61h139q-65 -246 -250 -246q-67 0 -139 41 q-60 31 -78.5 38t-40.5 7q-33 0 -51.5 -16.5t-30.5 -56.5h-137zM334 397q0 -92 47 -146t127 -54q88 0 142.5 65.5t54.5 171.5q0 92 -46.5 144.5t-126.5 52.5q-88 0 -143 -65.5t-55 -168.5z" />
<glyph unicode="&#xf6;" horiz-adv-x="1050" d="M63 395q0 195 135.5 327t336.5 132q196 0 318 -118.5t122 -307.5q0 -195 -131 -325t-328 -130q-203 0 -328 116.5t-125 305.5zM276 1120q0 57 40.5 96t99.5 39q55 0 94 -39.5t39 -95.5q0 -58 -39 -97.5t-96 -39.5t-97.5 40t-40.5 97zM334 397q0 -92 47 -146t127 -54 q88 0 142.5 65.5t54.5 171.5q0 92 -46.5 144.5t-126.5 52.5q-88 0 -143 -65.5t-55 -168.5zM659 1120q0 57 40 96t100 39q55 0 94 -39.5t39 -95.5q0 -57 -40 -97t-97 -40t-96.5 40t-39.5 97z" />
<glyph unicode="&#xf7;" d="M111 602v191h997v-191h-997zM461 344q0 63 43.5 105.5t107.5 42.5q60 0 103 -43.5t43 -104.5t-44 -105t-106 -44q-61 0 -104 43.5t-43 105.5zM461 1051q0 61 44 104t107 43q59 0 102.5 -44t43.5 -105q0 -62 -43.5 -105t-106.5 -43t-105 43.5t-42 106.5z" />
<glyph unicode="&#xf8;" horiz-adv-x="1105" d="M16 74l125 108q-29 53 -40 98.5t-11 106.5q0 201 133 334t334 133q159 0 274 -80l130 111l106 -127l-125 -105q59 -112 59 -227q0 -192 -131.5 -322.5t-326.5 -130.5q-174 0 -291 88l-137 -114zM360 395q0 -29 7 -61l292 266q-44 31 -102 31q-88 0 -142.5 -66t-54.5 -170 zM422 236q50 -39 113 -39q88 0 142 66.5t54 172.5q0 29 -8 70z" />
<glyph unicode="&#xf9;" horiz-adv-x="1034" d="M104 297q0 24 9 121l51 409h250l-54 -440q-6 -41 -6 -68q0 -61 37 -93.5t105 -32.5q77 0 111.5 45t49.5 163l52 426h252l-54 -432q-13 -118 -34 -183.5t-60 -113.5q-52 -66 -130 -95.5t-198 -29.5q-184 0 -282.5 83.5t-98.5 240.5zM350 1210l219 107l156 -293l-147 -68z " />
<glyph unicode="&#xfa;" horiz-adv-x="1034" d="M104 297q0 24 9 121l51 409h250l-54 -440q-6 -41 -6 -68q0 -61 37 -93.5t105 -32.5q77 0 111.5 45t49.5 163l52 426h252l-54 -432q-13 -118 -34 -183.5t-60 -113.5q-52 -66 -130 -95.5t-198 -29.5q-184 0 -282.5 83.5t-98.5 240.5zM459 1047l254 270l184 -152l-307 -209z " />
<glyph unicode="&#xfb;" horiz-adv-x="1034" d="M104 297q0 24 9 121l51 409h250l-54 -440q-6 -41 -6 -68q0 -61 37 -93.5t105 -32.5q77 0 111.5 45t49.5 163l52 426h252l-54 -432q-13 -118 -34 -183.5t-60 -113.5q-52 -66 -130 -95.5t-198 -29.5q-184 0 -282.5 83.5t-98.5 240.5zM287 1094l362 227l248 -272l-149 -93 l-136 150l-223 -150z" />
<glyph unicode="&#xfc;" horiz-adv-x="1034" d="M104 297q0 24 9 121l51 409h250l-54 -440q-6 -41 -6 -68q0 -61 37 -93.5t105 -32.5q77 0 111.5 45t49.5 163l52 426h252l-54 -432q-13 -118 -34 -183.5t-60 -113.5q-52 -66 -130 -95.5t-198 -29.5q-184 0 -282.5 83.5t-98.5 240.5zM268 1120q0 57 40.5 96t99.5 39 q55 0 94 -39.5t39 -95.5q0 -58 -39 -97.5t-96 -39.5t-97.5 40t-40.5 97zM651 1120q0 57 39.5 96t97.5 39q57 0 96.5 -39.5t39.5 -95.5q0 -57 -40.5 -97t-97.5 -40t-96 40t-39 97z" />
<glyph unicode="&#xfd;" horiz-adv-x="901" d="M27 827h268l149 -518l242 518h266l-594 -1204h-264l197 406zM391 1047l256 270l182 -152l-307 -209z" />
<glyph unicode="&#xfe;" horiz-adv-x="1093" d="M14 -383l232 1876h250l-97 -791q72 83 137 117.5t148 34.5q154 0 245 -105.5t91 -283.5q0 -213 -118 -353.5t-298 -140.5q-83 0 -141 31.5t-135 118.5l-62 -504h-252zM362 381q0 -91 47.5 -145t125.5 -54q91 0 152 74.5t61 183.5q0 94 -45 147.5t-123 53.5 q-92 0 -155 -75t-63 -185z" />
<glyph unicode="&#xff;" horiz-adv-x="901" d="M27 827h268l149 -518l242 518h266l-594 -1204h-264l197 406zM201 1120q0 55 41 95t98 40q56 0 94.5 -39t38.5 -96q0 -58 -39 -97.5t-96 -39.5t-97 40t-40 97zM584 1120q0 57 40 96t99 39q56 0 94.5 -39t38.5 -96q0 -58 -39 -97.5t-96 -39.5t-97 40t-40 97z" />
<glyph unicode="&#x152;" horiz-adv-x="1986" d="M111 633q0 216 93.5 390t259.5 272t372 98q261 0 442 -142l14 115h707l-31 -252h-434l-37 -303h418l-31 -252h-418l-39 -307h435l-31 -252h-707l15 123q-68 -62 -105 -84q-117 -68 -280 -68q-277 0 -467 193q-176 185 -176 469zM403 641q0 -177 105 -287t274 -110 q180 0 302 139.5t122 343.5q0 180 -98 286.5t-262 106.5q-189 0 -316 -137.5t-127 -341.5z" />
<glyph unicode="&#x153;" horiz-adv-x="1615" d="M61 389q0 197 133 331t328 134q100 0 173.5 -38.5t142.5 -127.5q99 96 171.5 131t172.5 35q122 0 207.5 -58t123.5 -167q29 -79 29 -238v-29h-604q2 -78 25 -122q22 -38 64.5 -60t94.5 -22q62 0 107 27t92 91l197 -86q-70 -114 -163 -165.5t-225 -51.5q-110 0 -181.5 34 t-133.5 114q-69 -80 -142 -114t-177 -34q-191 0 -313 116.5t-122 299.5zM303 395q0 -97 52.5 -151t144.5 -54q97 0 156 66.5t59 173.5q0 95 -52 151t-141 56q-94 0 -156.5 -69t-62.5 -173zM963 520h352q-4 84 -39.5 122t-106.5 38q-75 0 -123 -37.5t-83 -122.5z" />
<glyph unicode="&#x178;" horiz-adv-x="1146" d="M96 1366h312l204 -469l314 469h331l-524 -766l-74 -600h-272l74 600zM373 1626q0 58 42.5 99.5t102.5 41.5q59 0 100 -41.5t41 -101.5q0 -59 -41.5 -101t-101.5 -42q-59 0 -101 42.5t-42 102.5zM770 1626q0 60 41 100.5t104 40.5q57 0 99.5 -42.5t42.5 -100.5 t-43.5 -100.5t-100.5 -42.5q-60 0 -101.5 42t-41.5 103z" />
<glyph unicode="&#x2c6;" horiz-adv-x="1024" d="M281 1094l362 227l248 -272l-150 -93l-135 150l-223 -150z" />
<glyph unicode="&#x2dc;" horiz-adv-x="1024" d="M227 1006q31 118 92.5 181.5t145.5 63.5q34 0 63.5 -10t81.5 -39q70 -41 113 -41q32 0 53 17t41 61h137q-65 -246 -249 -246q-68 0 -140 41q-62 32 -79 38.5t-40 6.5q-32 0 -50.5 -16.5t-30.5 -56.5h-138z" />
<glyph unicode="&#x2000;" horiz-adv-x="935" />
<glyph unicode="&#x2001;" horiz-adv-x="1870" />
<glyph unicode="&#x2002;" horiz-adv-x="935" />
<glyph unicode="&#x2003;" horiz-adv-x="1870" />
<glyph unicode="&#x2004;" horiz-adv-x="623" />
<glyph unicode="&#x2005;" horiz-adv-x="467" />
<glyph unicode="&#x2006;" horiz-adv-x="311" />
<glyph unicode="&#x2007;" horiz-adv-x="311" />
<glyph unicode="&#x2008;" horiz-adv-x="233" />
<glyph unicode="&#x2009;" horiz-adv-x="374" />
<glyph unicode="&#x200a;" horiz-adv-x="103" />
<glyph unicode="&#x2010;" horiz-adv-x="440" d="M-18 319l26 209h441l-27 -209h-440z" />
<glyph unicode="&#x2011;" horiz-adv-x="440" d="M-18 319l26 209h441l-27 -209h-440z" />
<glyph unicode="&#x2012;" horiz-adv-x="440" d="M-18 319l26 209h441l-27 -209h-440z" />
<glyph unicode="&#x2013;" d="M59 319l27 209h1006l-25 -209h-1008z" />
<glyph unicode="&#x2014;" horiz-adv-x="1320" d="M-18 319l26 209h1319l-24 -209h-1321z" />
<glyph unicode="&#x2018;" horiz-adv-x="495" d="M119 827l241 566h138l-121 -566h-258z" />
<glyph unicode="&#x2019;" horiz-adv-x="481" d="M139 827l121 566h258l-239 -566h-140z" />
<glyph unicode="&#x201a;" horiz-adv-x="481" d="M-20 -317l120 563h258l-239 -563h-139z" />
<glyph unicode="&#x201c;" horiz-adv-x="890" d="M119 827l241 566h138l-121 -566h-258zM516 827l240 566h139l-121 -566h-258z" />
<glyph unicode="&#x201d;" horiz-adv-x="878" d="M139 827l121 566h258l-239 -566h-140zM537 827l120 566h258l-241 -566h-137z" />
<glyph unicode="&#x201e;" horiz-adv-x="878" d="M-20 -317l120 563h258l-239 -563h-139zM377 -317l121 563h258l-242 -563h-137z" />
<glyph unicode="&#x2022;" horiz-adv-x="1366" d="M426 696q0 119 84 203q43 43 88.5 60.5t114.5 17.5q120 0 192 -78q40 -41 64 -96.5t24 -106.5q0 -114 -85.5 -200t-198.5 -86q-117 0 -200 84t-83 202z" />
<glyph unicode="&#x2026;" horiz-adv-x="1638" d="M74 131q0 65 46.5 110.5t112.5 45.5q63 0 108.5 -46t45.5 -112t-45 -111t-111 -45t-111.5 46t-45.5 112zM621 131q0 66 46 111t113 45q63 0 108.5 -46.5t45.5 -111.5t-46 -110.5t-112 -45.5t-110.5 45.5t-44.5 112.5zM1165 131q0 64 47 110t113 46q64 0 109 -46t45 -112 t-45 -111t-111 -45t-112 46t-46 112z" />
<glyph unicode="&#x202f;" horiz-adv-x="374" />
<glyph unicode="&#x2039;" horiz-adv-x="563" d="M63 424l324 397l125 -108l-248 -297l172 -277l-139 -90z" />
<glyph unicode="&#x203a;" horiz-adv-x="563" d="M41 133l248 299l-170 277l137 88l233 -373l-323 -399z" />
<glyph unicode="&#x205f;" horiz-adv-x="467" />
<glyph unicode="&#x20ac;" d="M-49 449l61 157h82l-2 6v25q0 12 4 57q0 25 2 31h-112l61 158h82q75 241 257.5 375.5t436.5 134.5q85 0 146.5 -13t158.5 -51l-100 -254q-101 45 -203 45q-125 0 -224 -61.5t-157 -175.5h510l-63 -158h-498q0 -6 -4 -55q-4 -32 -4 -33q2 -27 2 -31h459l-62 -157h-360 q44 -96 131.5 -150.5t196.5 -54.5q72 0 129 18.5t147 69.5v-287q-55 -34 -135.5 -53t-165.5 -19q-224 0 -391.5 130.5t-220.5 345.5h-164z" />
<glyph unicode="&#x2122;" horiz-adv-x="1531" d="M84 1200l20 166h517l-21 -166h-158l-73 -612h-193l76 612h-168zM559 588l254 778h172l86 -401q1 -3 3 -19.5t5 -36.5l11 21l8 18l211 418h178l24 -778h-194l-10 401l-203 -401h-131l-88 411l-133 -411h-193z" />
<glyph unicode="&#x25fc;" horiz-adv-x="829" d="M0 0v829h829v-829h-829z" />
</font>
</defs>
</svg>
